HIERARCHY
ROOT joint_Root
{
	OFFSET 0.0 0.0 0.0
	CHANNELS 6 Xposition Yposition Zposition Zrotation Xrotation Yrotation 
	JOINT Hips
	{
		OFFSET 4.5925 91.4895 -427.239
		CHANNELS 6 Xposition Yposition Zposition Zrotation Xrotation Yrotation 
		JOINT Spine
		{
			OFFSET 15.7357 0.0 0.0
			CHANNELS 6 Xposition Yposition Zposition Zrotation Xrotation Yrotation 
			JOINT Chest
			{
				OFFSET 8.98455 -0.406207 0.0
				CHANNELS 6 Xposition Yposition Zposition Zrotation Xrotation Yrotation 
				JOINT Neck
				{
					OFFSET 16.3773 0.0 0.0
					CHANNELS 6 Xposition Yposition Zposition Zrotation Xrotation Yrotation 
					JOINT Head
					{
						OFFSET 6.45672 0.0 0.0
						CHANNELS 6 Xposition Yposition Zposition Zrotation Xrotation Yrotation 
						End Site
						{
							OFFSET 0.0 0.0 0.0
						}
					}
				}
				JOINT Shoulder_L
				{
					OFFSET 12.9942 -0.242716 4.98039
					CHANNELS 6 Xposition Yposition Zposition Zrotation Xrotation Yrotation 
					JOINT UpperArm_L
					{
						OFFSET 5.34809 0.0 0.0
						CHANNELS 6 Xposition Yposition Zposition Zrotation Xrotation Yrotation 
						JOINT LowerArm_L
						{
							OFFSET 24.3286 1.87007e-05 0.0
							CHANNELS 6 Xposition Yposition Zposition Zrotation Xrotation Yrotation 
							JOINT Hand_L
							{
								OFFSET 22.2916 0.0 0.0
								CHANNELS 6 Xposition Yposition Zposition Zrotation Xrotation Yrotation 
								End Site
								{
									OFFSET 0.0 0.0 0.0
								}
							}
						}
					}
				}
				JOINT Shoulder_R
				{
					OFFSET 12.9945 -0.242716 -4.98039
					CHANNELS 6 Xposition Yposition Zposition Zrotation Xrotation Yrotation 
					JOINT UpperArm_R
					{
						OFFSET -5.34813 0.0 0.0
						CHANNELS 6 Xposition Yposition Zposition Zrotation Xrotation Yrotation 
						JOINT LowerArm_R
						{
							OFFSET -24.3289 0.000322201 0.0
							CHANNELS 6 Xposition Yposition Zposition Zrotation Xrotation Yrotation 
							JOINT Hand_R
							{
								OFFSET -22.2915 -0.000108084 0.0
								CHANNELS 6 Xposition Yposition Zposition Zrotation Xrotation Yrotation 
								End Site
								{
									OFFSET 0.0 0.0 0.0
								}
							}
						}
					}
				}
			}
		}
		JOINT UpperLeg_L
		{
			OFFSET -2.19248 -6.46944 0.0
			CHANNELS 6 Xposition Yposition Zposition Zrotation Xrotation Yrotation 
			JOINT LowerLeg_L
			{
				OFFSET 39.0811 0.0 -1.23785e-05
				CHANNELS 6 Xposition Yposition Zposition Zrotation Xrotation Yrotation 
				JOINT Foot_L
				{
					OFFSET 40.9854 0.0 -1.26872e-05
					CHANNELS 6 Xposition Yposition Zposition Zrotation Xrotation Yrotation 
					JOINT Toes_L
					{
						OFFSET 11.7543 0.0 0.0
						CHANNELS 6 Xposition Yposition Zposition Zrotation Xrotation Yrotation 
						End Site
						{
							OFFSET 0.0 0.0 0.0
						}
					}
				}
			}
		}
		JOINT UpperLeg_R
		{
			OFFSET -2.19251 6.46944 0.0
			CHANNELS 6 Xposition Yposition Zposition Zrotation Xrotation Yrotation 
			JOINT LowerLeg_R
			{
				OFFSET -39.0811 -0.00228153 -0.0401928
				CHANNELS 6 Xposition Yposition Zposition Zrotation Xrotation Yrotation 
				JOINT Foot_R
				{
					OFFSET -40.9854 0.0 0.0
					CHANNELS 6 Xposition Yposition Zposition Zrotation Xrotation Yrotation 
					JOINT Toes_R
					{
						OFFSET -11.7543 0.0 0.0
						CHANNELS 6 Xposition Yposition Zposition Zrotation Xrotation Yrotation 
						End Site
						{
							OFFSET 0.0 0.0 0.0
						}
					}
				}
			}
		}
	}
}
MOTION
Frames:	4
Frame Time:	0.0333333
0.000000 0.000000 0.000000 0.000000 0.000000 -0.000000 -11.668900 83.934700 72.073600 -90.419300 5.197080 178.420000 15.735700 0.000005 -0.000001 95.433100 82.538200 -97.738000 8.984550 -0.406207 -0.000000 7.125060 1.420850 -4.693520 16.377300 -0.000001 -0.000001 -5.691450 -2.526420 0.428324 6.456720 -0.000001 -0.000000 -12.582000 -4.131120 3.321450 12.994200 -0.242716 4.980390 -90.396900 1.128000 -70.619500 5.348090 -0.000007 -0.000001 -58.963500 20.975500 3.804650 24.328600 0.000019 0.000005 13.344300 -3.653850 -105.038000 22.291600 -0.000001 0.000005 7.316820 5.441820 -4.349320 12.994500 -0.242716 -4.980390 88.596600 7.196570 -78.935100 -5.348130 -0.000001 -0.000004 -65.285600 36.325000 0.263583 -24.328900 0.000322 -0.000009 -7.912020 -0.569264 -85.904300 -22.291500 -0.000108 -0.000004 18.044300 5.569000 -9.612710 -2.192480 -6.469440 -0.000000 178.013000 -7.173910 -30.133800 39.081100 -0.000007 -0.000012 -0.415359 0.261214 57.835600 40.985400 -0.000006 -0.000013 1.992200 -1.415080 -79.874300 11.754300 -0.000000 0.000003 -0.000272 -0.002394 -16.667000 -2.192510 6.469440 -0.000001 176.081000 2.008340 167.908000 -39.081100 -0.002282 -0.040193 0.034433 0.005778 100.682000 -40.985400 0.000008 0.000006 8.483210 -5.865830 -43.110900 -11.754300 -0.000006 -0.000006 -0.017327 -0.152007 -22.778900
0.000000 0.000000 0.000000 0.000000 0.000000 -0.000000 -12.457500 82.352200 64.854800 -90.618900 5.677640 178.328000 15.735700 0.000005 -0.000001 91.133500 82.425000 -93.606000 8.984550 -0.406207 -0.000000 7.392550 0.306524 -4.959540 16.377300 -0.000001 -0.000001 -5.394420 -2.130900 0.424666 6.456720 -0.000001 -0.000000 -12.674800 -3.110190 3.581100 12.994200 -0.242716 4.980390 -91.109300 3.189920 -70.812800 5.348090 -0.000007 -0.000001 -57.520200 20.267500 -10.747800 24.328600 0.000019 0.000005 16.994400 -4.154650 -103.336000 22.291600 -0.000001 0.000005 6.783980 5.435190 -4.118660 12.994500 -0.242716 -4.980390 88.461000 7.296900 -78.055600 -5.348130 -0.000001 -0.000004 -67.225400 32.893900 6.023260 -24.328900 0.000322 -0.000009 -5.461580 -1.370410 -75.942300 -22.291500 -0.000108 -0.000004 21.421100 5.588480 -10.680500 -2.192480 -6.469440 -0.000000 177.414000 -9.136890 -25.661900 39.081100 -0.000007 -0.000012 -0.458609 0.257664 60.672100 40.985400 -0.000006 -0.000013 2.876580 -0.868934 -87.393400 11.754300 -0.000000 0.000003 -0.000426 -0.003487 -16.705800 -2.192510 6.469440 -0.000001 177.045000 0.521442 156.791000 -39.081100 -0.002282 -0.040193 -0.166526 -0.069937 112.352000 -40.985400 0.000008 0.000006 10.093800 -5.545050 -44.423800 -11.754300 -0.000006 -0.000006 -0.016705 -0.148302 -22.626600
0.000000 0.000000 0.000000 0.000000 0.000000 -0.000000 -12.865400 82.322900 57.333200 -89.514100 4.147030 176.713000 15.735700 0.000005 -0.000001 82.313400 82.929700 -84.093100 8.984550 -0.406207 -0.000000 6.223570 -1.862070 -3.454310 16.377300 -0.000001 -0.000001 -5.253120 -2.341270 -0.082627 6.456720 -0.000001 -0.000000 -11.726600 -2.269910 3.139710 12.994200 -0.242716 4.980390 -90.911800 2.757390 -71.695100 5.348090 -0.000007 -0.000001 -61.328100 21.027200 -22.185300 24.328600 0.000019 0.000005 17.204000 -4.730100 -104.913000 22.291600 -0.000001 0.000005 6.292960 5.462210 -5.083370 12.994500 -0.242716 -4.980390 88.319600 6.839660 -76.160900 -5.348130 -0.000001 -0.000004 -67.512100 31.437500 13.567800 -24.328900 0.000322 -0.000009 -8.705980 -1.875380 -77.920800 -22.291500 -0.000108 -0.000004 18.171300 5.608730 -11.894500 -2.192480 -6.469440 -0.000000 178.649000 -8.829380 -19.366400 39.081100 -0.000007 -0.000012 -0.444623 0.286293 57.223500 40.985400 -0.000006 -0.000013 3.339120 0.017007 -91.730700 11.754300 -0.000000 0.000003 -0.000391 -0.003246 -16.697300 -2.192510 6.469440 -0.000001 179.786000 2.316640 146.331000 -39.081100 -0.002282 -0.040193 -0.255287 -0.124818 115.747000 -40.985400 0.000008 0.000006 11.450900 -8.198080 -47.756900 -11.754300 -0.000006 -0.000006 -0.017187 -0.151178 -22.744900
0.000000 0.000000 0.000000 0.000000 0.000000 -0.000000 -12.709600 83.872000 48.855100 -87.351000 1.987710 175.623000 15.735700 0.000005 -0.000001 67.581900 83.050300 -68.112300 8.984550 -0.406207 -0.000000 5.075840 -5.277320 -0.826032 16.377300 -0.000001 -0.000001 -4.834350 -2.488990 -0.351952 6.456720 -0.000001 -0.000000 -11.549400 -0.102912 2.385260 12.994200 -0.242716 4.980390 -90.139000 0.453972 -73.003000 5.348090 -0.000007 -0.000001 -66.674600 22.949300 -28.039600 24.328600 0.000019 0.000005 17.864100 -6.050240 -108.109000 22.291600 -0.000001 0.000005 7.878160 5.455010 -4.819550 12.994500 -0.242716 -4.980390 88.544800 5.088820 -74.016700 -5.348130 -0.000001 -0.000004 -68.015600 34.134000 19.210100 -24.328900 0.000322 -0.000009 -14.395300 -1.718900 -83.332200 -22.291500 -0.000108 -0.000004 15.601200 5.606840 -11.759300 -2.192480 -6.469440 -0.000000 -178.368000 -8.175360 -8.769230 39.081100 -0.000007 -0.000012 0.034610 -0.032857 46.485300 40.985400 -0.000006 -0.000013 5.767980 0.919388 -91.465400 11.754300 -0.000000 0.000003 -1.112090 -1.381470 -16.968000 -2.192510 6.469440 -0.000001 -175.325000 3.934700 140.577000 -39.081100 -0.002282 -0.040193 -0.271536 -0.102799 110.489000 -40.985400 0.000008 0.000006 11.410100 -12.394800 -52.976100 -11.754300 -0.000006 -0.000006 -0.016200 -0.145244 -22.501000
